<svg width="894" height="894" viewBox="0 0 894 894" fill="none" xmlns="http://www.w3.org/2000/svg">
<path d="M598.4 408.286V176H752.8C774.03 176 792.211 183.588 807.342 198.764C822.473 213.94 830.027 232.162 830 253.429V408.286H598.4ZM135.2 718C113.97 718 95.8023 710.424 80.6968 695.275C65.5913 680.126 58.0257 661.891 58 640.571V253.429C58 232.136 65.5656 213.914 80.6968 198.764C95.828 183.614 113.996 176.026 135.2 176H521.2V718H135.2ZM289.6 505.071C305.683 505.071 319.361 499.432 330.632 488.153C341.903 476.875 347.526 463.157 347.5 447C347.474 430.843 341.852 417.138 330.632 405.885C319.412 394.632 305.735 388.98 289.6 388.929C273.465 388.877 259.801 394.529 248.607 405.885C237.413 417.241 231.777 430.946 231.7 447C231.623 463.054 237.258 476.771 248.607 488.153C259.955 499.535 273.62 505.175 289.6 505.071ZM598.4 718V485.714H830V640.571C830 661.864 822.446 680.099 807.342 695.275C792.238 710.451 774.057 718.027 752.8 718H598.4Z" fill="#5856D6"/>
</svg>
