<svg width="287" height="284" viewBox="0 0 287 284" fill="none" xmlns="http://www.w3.org/2000/svg">
  <path
    d="M14 27.5H114C117.59 27.5 120.5 30.4101 120.5 34V134C120.5 137.59 117.59 140.5 114 140.5H14C10.4101 140.5 7.5 137.59 7.5 134V34C7.5 30.4101 10.4101 27.5 14 27.5ZM150 27.5H250C253.59 27.5 256.5 30.4101 256.5 34V270C256.5 273.59 253.59 276.5 250 276.5H150C146.41 276.5 143.5 273.59 143.5 270V34C143.5 30.4102 146.41 27.5 150 27.5ZM14 163.5H114C117.59 163.5 120.5 166.41 120.5 170V270C120.5 273.59 117.59 276.5 114 276.5H14C10.4101 276.5 7.5 273.59 7.5 270V170C7.5 166.41 10.4101 163.5 14 163.5Z"
    fill="#4900C7" stroke="#5A70FF" stroke-width="15" />
  <path
    d="M14 22.5H114C120.351 22.5 125.5 27.6487 125.5 34V134C125.5 140.351 120.351 145.5 114 145.5H14C7.64873 145.5 2.5 140.351 2.5 134V34C2.5 27.6487 7.64873 22.5 14 22.5ZM150 22.5H250C256.351 22.5 261.5 27.6487 261.5 34V270C261.5 276.351 256.351 281.5 250 281.5H150C143.649 281.5 138.5 276.351 138.5 270V34C138.5 27.6487 143.649 22.5 150 22.5ZM14 158.5H114C120.351 158.5 125.5 163.649 125.5 170V270C125.5 276.351 120.351 281.5 114 281.5H14C7.64873 281.5 2.5 276.351 2.5 270V170C2.5 163.649 7.64873 158.5 14 158.5Z"
    stroke="black" stroke-width="5" />
  <path fill-rule="evenodd" clip-rule="evenodd"
    d="M135.458 18.6308C141.453 18.6308 146.849 20.7161 150.128 24.1023L170.545 45.1856C173.618 48.3596 178.683 48.441 181.857 45.3674C185.031 42.2937 185.112 37.2291 182.039 34.0551L161.622 12.9718C154.693 5.81628 144.777 2.63078 135.458 2.63078C126.14 2.63078 116.224 5.81628 109.295 12.9718L99.0864 23.5134C92.1893 30.6357 89.1771 40.7389 89.1771 50.162C89.1771 59.5851 92.1893 69.6884 99.0864 76.8106L150.128 129.519C157.057 136.674 166.973 139.86 176.292 139.86C185.61 139.86 195.526 136.674 202.455 129.519C205.529 126.345 205.448 121.28 202.274 118.207C199.1 115.133 194.035 115.214 190.961 118.388C187.682 121.775 182.286 123.86 176.292 123.86C170.297 123.86 164.901 121.775 161.622 118.388L110.58 65.6801C107.269 62.2607 105.177 56.5514 105.177 50.162C105.177 43.7726 107.269 38.0634 110.58 34.644L120.789 24.1023C124.068 20.7161 129.464 18.6308 135.458 18.6308ZM196.708 81.8808C202.703 81.8808 208.099 83.9661 211.378 87.3523L262.42 140.061C265.731 143.48 267.823 149.189 267.823 155.579C267.823 161.968 265.731 167.677 262.42 171.097L252.211 181.638C248.932 185.025 243.536 187.11 237.542 187.11C231.547 187.11 226.151 185.025 222.872 181.638L202.455 160.555C199.382 157.381 194.317 157.3 191.143 160.373C187.969 163.447 187.888 168.512 190.961 171.686L211.378 192.769C218.307 199.924 228.223 203.11 237.542 203.11C246.86 203.11 256.776 199.924 263.705 192.769L273.914 182.227C280.811 175.105 283.823 165.002 283.823 155.579C283.823 146.156 280.811 136.052 273.914 128.93L222.872 76.2218C215.943 69.0663 206.027 65.8808 196.708 65.8808C187.39 65.8808 177.474 69.0663 170.545 76.2218C167.471 79.3957 167.552 84.4604 170.726 87.534C173.9 90.6076 178.965 90.5263 182.039 87.3523C185.318 83.9661 190.714 81.8808 196.708 81.8808Z"
    fill="#5A70FF" stroke="black" stroke-width="5" stroke-linecap="round" stroke-linejoin="round" />
</svg>