<svg width="287" height="285" viewBox="0 0 287 285" fill="none" xmlns="http://www.w3.org/2000/svg">
  <path
    d="M14 27.8692H114C117.59 27.8692 120.5 30.7794 120.5 34.3692V134.369C120.5 137.959 117.59 140.869 114 140.869H14C10.4101 140.869 7.5 137.959 7.5 134.369V34.3692C7.5 30.7794 10.4101 27.8692 14 27.8692ZM150 27.8692H250C253.59 27.8692 256.5 30.7794 256.5 34.3692V270.369C256.5 273.959 253.59 276.869 250 276.869H150C146.41 276.869 143.5 273.959 143.5 270.369V34.3692C143.5 30.7794 146.41 27.8692 150 27.8692ZM14 163.869H114C117.59 163.869 120.5 166.779 120.5 170.369V270.369C120.5 273.959 117.59 276.869 114 276.869H14C10.4101 276.869 7.5 273.959 7.5 270.369V170.369C7.5 166.779 10.4101 163.869 14 163.869Z"
    fill="#383838" stroke="#999999" stroke-width="15" />
  <path
    d="M14 22.8692H114C120.351 22.8692 125.5 28.0179 125.5 34.3692V134.369C125.5 140.72 120.351 145.869 114 145.869H14C7.64873 145.869 2.5 140.72 2.5 134.369V34.3692C2.5 28.0179 7.64873 22.8692 14 22.8692ZM150 22.8692H250C256.351 22.8692 261.5 28.0179 261.5 34.3692V270.369C261.5 276.721 256.351 281.869 250 281.869H150C143.649 281.869 138.5 276.721 138.5 270.369V34.3692C138.5 28.0179 143.649 22.8692 150 22.8692ZM14 158.869H114C120.351 158.869 125.5 164.018 125.5 170.369V270.369C125.5 276.721 120.351 281.869 114 281.869H14C7.64873 281.869 2.5 276.721 2.5 270.369V170.369C2.5 164.018 7.64873 158.869 14 158.869Z"
    stroke="#D9D9D9" stroke-width="5" />
  <path fill-rule="evenodd" clip-rule="evenodd"
    d="M135.458 19C141.453 19 146.849 21.0853 150.128 24.4715L170.545 45.5548C173.618 48.7288 178.683 48.8102 181.857 45.7366C185.031 42.663 185.112 37.5983 182.039 34.4243L161.622 13.341C154.693 6.1855 144.777 3 135.458 3C126.14 3 116.224 6.1855 109.295 13.341L99.0864 23.8827C92.1893 31.0049 89.1771 41.1081 89.1771 50.5312C89.1771 59.9544 92.1893 70.0576 99.0864 77.1798L150.128 129.888C157.057 137.044 166.973 140.229 176.292 140.229C185.61 140.229 195.526 137.044 202.455 129.888C205.529 126.714 205.448 121.65 202.274 118.576C199.1 115.502 194.035 115.584 190.961 118.758C187.682 122.144 182.286 124.229 176.292 124.229C170.297 124.229 164.901 122.144 161.622 118.758L110.58 66.0493C107.269 62.6299 105.177 56.9206 105.177 50.5312C105.177 44.1419 107.269 38.4326 110.58 35.0132L120.789 24.4715C124.068 21.0853 129.464 19 135.458 19ZM196.708 82.25C202.703 82.25 208.099 84.3353 211.378 87.7215L262.42 140.43C265.731 143.849 267.823 149.559 267.823 155.948C267.823 162.337 265.731 168.047 262.42 171.466L252.211 182.008C248.932 185.394 243.536 187.479 237.542 187.479C231.547 187.479 226.151 185.394 222.872 182.008L202.455 160.924C199.382 157.75 194.317 157.669 191.143 160.743C187.969 163.816 187.888 168.881 190.961 172.055L211.378 193.138C218.307 200.294 228.223 203.479 237.542 203.479C246.86 203.479 256.776 200.294 263.705 193.138L273.914 182.597C280.811 175.474 283.823 165.371 283.823 155.948C283.823 146.525 280.811 136.422 273.914 129.299L222.872 76.591C215.943 69.4355 206.027 66.25 196.708 66.25C187.39 66.25 177.474 69.4355 170.545 76.591C167.471 79.765 167.552 84.8296 170.726 87.9032C173.9 90.9768 178.965 90.8955 182.039 87.7215C185.318 84.3353 190.714 82.25 196.708 82.25Z"
    fill="#999999" stroke="#D9D9D9" stroke-width="5" stroke-linecap="round" stroke-linejoin="round" />
</svg>