<svg width="1024" height="1024" viewBox="0 0 1024 1024" fill="none" xmlns="http://www.w3.org/2000/svg">
<rect width="1024" height="1024" fill="url(#paint0_linear_465_1451)"/>
<path d="M665.4 473.286V241H819.8C841.03 241 859.211 248.588 874.342 263.764C889.473 278.94 897.027 297.162 897 318.429V473.286H665.4ZM202.2 783C180.97 783 162.802 775.424 147.697 760.275C132.591 745.126 125.026 726.891 125 705.571V318.429C125 297.136 132.566 278.914 147.697 263.764C162.828 248.614 180.996 241.026 202.2 241H588.2V783H202.2ZM356.6 570.071C372.683 570.071 386.361 564.432 397.632 553.153C408.903 541.875 414.526 528.157 414.5 512C414.474 495.843 408.852 482.138 397.632 470.885C386.412 459.632 372.735 453.98 356.6 453.929C340.465 453.877 326.801 459.529 315.607 470.885C304.413 482.241 298.777 495.946 298.7 512C298.623 528.054 304.258 541.771 315.607 553.153C326.955 564.535 340.62 570.175 356.6 570.071ZM665.4 783V550.714H897V705.571C897 726.864 889.446 745.099 874.342 760.275C859.238 775.451 841.057 783.027 819.8 783H665.4Z" fill="#5856D6"/>
<defs>
<linearGradient id="paint0_linear_465_1451" x1="512" y1="0" x2="512" y2="1024" gradientUnits="userSpaceOnUse">
<stop stop-color="#3F3F3F"/>
<stop offset="0.555" stop-color="#1E1E1E"/>
<stop offset="1"/>
</linearGradient>
</defs>
</svg>
